<svg width="48" height="48" viewBox="0 0 48 48" fill="none" xmlns="http://www.w3.org/2000/svg">
<g id="Asset">
<g id="Group 8124">
<rect id="Rectangle 4405" x="5" y="4.78564" width="30.643" height="39.0002" rx="3.7143" fill="#FF9296"/>
<path id="Rectangle 4406" d="M7.7854 11.2856C7.7854 10.2599 8.61687 9.42847 9.64255 9.42847H30.9998C32.0255 9.42847 32.8569 10.2599 32.8569 11.2856V37.2857C32.8569 38.3114 32.0255 39.1429 30.9998 39.1429H9.64255C8.61688 39.1429 7.7854 38.3114 7.7854 37.2857V11.2856Z" fill="#FFDBDD"/>
<rect id="Rectangle 4408" x="9.64282" y="13.1428" width="3.7143" height="3.7143" rx="0.928575" fill="#FF8085"/>
<rect id="Rectangle 4410" x="9.64282" y="19.6428" width="3.7143" height="3.7143" rx="0.928575" fill="#FF8085"/>
<rect id="Rectangle 4411" x="9.64282" y="26.1428" width="3.7143" height="3.7143" rx="0.928575" fill="#FF8085"/>
<rect id="Rectangle 4407" x="14.2859" y="2" width="12.0715" height="7.4286" rx="1.85715" fill="#FB4F56"/>
<rect id="Rectangle 4412" opacity="0.5" x="14.2859" y="13.1428" width="15.7858" height="3.7143" rx="0.928575" fill="#FFAEB2"/>
<rect id="Rectangle 4413" opacity="0.5" x="14.2859" y="19.6428" width="15.7858" height="3.7143" rx="0.928575" fill="#FFAEB2"/>
<rect id="Rectangle 4414" opacity="0.5" x="14.2859" y="26.1428" width="15.7858" height="3.7143" rx="0.928575" fill="#FFAEB2"/>
<path id="Vector 1294" d="M21 44V35L29 44H21Z" fill="#A71A1F"/>
<g id="person">
<mask id="mask0_231_688" style="mask-type:alpha" maskUnits="userSpaceOnUse" x="21" y="24" width="24" height="24">
<circle id="Ellipse 724" cx="32.605" cy="35.605" r="11.605" fill="#FFAEB2"/>
</mask>
<g mask="url(#mask0_231_688)">
<circle id="Ellipse 725" cx="32.605" cy="35.605" r="11.605" fill="#FFAEB2"/>
<circle id="Ellipse 726" cx="32.605" cy="35.605" r="11.605" fill="#FFAEB2"/>
<g id="Group 8230">
<g id="assets">
<path id="path9871 9 6" d="M28.8005 41.833C26.5489 41.833 24.7136 43.6616 24.7136 45.9132V47.2737H39.6978V45.9132C39.6978 43.6616 37.8639 41.833 35.6123 41.833H28.8005Z" fill="#FB4F56"/>
<path id="path22408" d="M32.8882 41.833C35.1398 41.833 36.9737 43.6616 36.9737 45.9132V47.2737H39.6974V45.9132C39.6974 43.6616 37.8634 41.833 35.6119 41.833H32.8882Z" fill="#FC6067"/>
<path id="path9878 9 3" d="M29.4842 39.1067V42.51C29.4835 42.5623 29.4891 42.6145 29.5001 42.6657C29.5001 42.6657 29.6201 43.1709 30.0228 43.6352C30.4255 44.0996 31.1681 44.5502 32.2092 44.5502C33.2503 44.5502 33.9876 44.0996 34.3903 43.6352C34.7928 43.1709 34.9129 42.6657 34.9129 42.6657C34.9242 42.6147 34.9297 42.5625 34.9289 42.51V39.1067H29.4842Z" fill="#FFAEB2"/>
<path id="path9906 3 7" d="M29.4841 39.1067V41.7652C30.2881 42.2346 31.2181 42.5087 32.2091 42.5087C33.1989 42.5087 34.1264 42.2351 34.9288 41.7666V39.1067H29.4841Z" fill="#EC8A8E"/>
<path id="path9864 2 1" d="M28.1228 34.3374V37.0625C28.1228 39.3141 29.9581 41.148 32.2097 41.148C34.4613 41.148 36.2912 39.314 36.2912 37.0625V34.3374H28.1228Z" fill="#FFDBDD"/>
<path id="path9895 7 4" d="M33.5669 34.3374V37.0625C33.5669 38.8361 32.4297 40.3468 30.8472 40.9099C31.2741 41.0618 31.731 41.148 32.209 41.148C34.4606 41.148 36.2905 39.314 36.2905 37.0625V34.3374H33.5669Z" fill="#FFC1C4"/>
<path id="path9857 2 7" d="M31.5256 29.5728C29.274 29.5728 27.4387 31.408 27.4387 33.6596V35.6997C27.4367 36.0784 27.7437 36.3861 28.1223 36.3847H30.1624C31.9008 36.3847 33.6969 35.4949 34.1495 35.2037L35.1297 36.1825C35.2572 36.3114 35.431 36.3843 35.6124 36.3848H36.2907C36.6693 36.3862 36.9764 36.0785 36.9743 35.6999V33.6598C36.9743 31.4081 35.139 29.5729 32.8874 29.5729L31.5256 29.5728Z" fill="#A71A1F"/>
<path id="path9893 8 1" d="M31.5264 29.5728C31.294 29.5728 31.0674 29.5985 30.8455 29.6353C32.774 29.9615 34.2514 31.6405 34.2514 33.6597V35.3047L35.1305 36.1825C35.258 36.3114 35.4318 36.3843 35.6132 36.3848H36.2915C36.6701 36.3862 36.9772 36.0785 36.9751 35.6999V33.6598C36.9751 31.4082 35.1398 29.5729 32.8882 29.5729L31.5264 29.5728Z" fill="#8C0D12"/>
</g>
</g>
</g>
</g>
</g>
</g>
</svg>
