<svg width="49" height="48" viewBox="0 0 49 48" fill="none" xmlns="http://www.w3.org/2000/svg">
<g id="Asset">
<g id="Group 7968">
<path id="Subtract" fill-rule="evenodd" clip-rule="evenodd" d="M30.4585 1H10.5151C8.20552 1 6.33325 2.87226 6.33325 5.18182V42.8182C6.33325 45.1277 8.20551 47 10.5151 47H38.9514C41.261 47 43.1333 45.1277 43.1333 42.8182V15.8321L30.4585 1Z" fill="#7E91EE"/>
<path id="Vector 1284" d="M30.5879 13.5455V1L43.1333 16.0545H33.097C31.7112 16.0545 30.5879 14.9312 30.5879 13.5455Z" fill="#B0BEFF"/>
<rect id="Rectangle 4310" x="12.3333" y="33" width="24.1818" height="5.09091" rx="2.54545" fill="#445BCA"/>
<rect id="Rectangle 4311" x="12.3333" y="24" width="24.1818" height="5.09091" rx="2.54545" fill="#445BCA"/>
<path id="Vector 1285" d="M43.1333 20.2363L32.6787 16.0544H43.1333V20.2363Z" fill="#818CF8"/>
</g>
<rect id="Rectangle 4312" x="12.3333" y="6" width="11" height="10" rx="2" fill="#445BCA"/>
</g>
</svg>
